:SAMPLES-PER-SECOND 30
:FRAME-RANGE 1-2009
:FULLY-SPECIFIED
:DEGREES
126
root  -2.35735 38.6266 -42.682 0.707059 -9.70687 3.93065
RightUpLeg  8.32374 6.96633 -5.28899
RightLeg  30.3284 7.84655 4.70881
RightFoot  -18.9447 0.156831 4.29082
RightToes  2.96424e-010 1.2921e-014 -6.02303e-014
Spine  -7.06781 -2.3081 -1.80142
Spine1  9.30231 -1.77276 -3.96109
HEad  19.6464 -10.453 -3.07885
LeftShoulder1  0.760692 0.73864 -23.6274
LeftArm  -1.92308 11.7639 -44.8836
LeftForeArm  36.4157 2.79015 -12.8089
LeftHand  -0.0406168 4.82169 3.6719
RightShoulder  1.03343 0.61471 19.8789
RightArm  -60.4047 4.53382 32.8191
RightForeArm  -47.1985 26.6787 7.63447
RightHand  24.0944 -24.4325 -102.929
LeftUpLeg  -23.6083 -6.15318 -3.59654
LeftLeg  17.5904 7.81722 3.50712
LeftFoot  2.44728 0.400339 -3.43392
LeftToes  -1.2485e-010 1.20979e-011 -1.0929e-011
127
root  -2.18703 38.5878 -41.3159 0.330048 -10.7476 4.61197
RightUpLeg  5.21853 6.58184 -8.10016
RightLeg  39.2632 11.0905 9.32477
RightFoot  -14.17 0.0814858 7.18977
RightToes  2.96424e-010 1.2921e-014 -6.02303e-014
Spine  -6.86965 -2.24903 -2.9284
Spine1  9.51152 -1.75783 -4.00585
HEad  19.575 -10.0861 -3.22891
LeftShoulder1  0.73657 0.831886 -23.7766
LeftArm  -2.26085 13.293 -44.4687
LeftForeArm  37.2926 4.82259 -12.7925
LeftHand  -0.0343135 5.02482 3.2591
RightShoulder  1.01959 0.422068 20.9344
RightArm  -59.4707 2.77542 32.4902
RightForeArm  -42.3595 21.4306 4.9925
RightHand  24.0981 -26.5728 -96.7205
LeftUpLeg  -22.4282 -7.16198 -5.05851
LeftLeg  18.9688 10.2034 4.53844
LeftFoot  1.93422 -0.0473224 0.306091
LeftToes  -1.2485e-010 1.20979e-011 -1.0929e-011
128
root  -2.06314 38.6211 -40.0341 0.401708 -12.0705 4.78358
RightUpLeg  0.0206245 7.09542 -9.75066
RightLeg  49.3003 10.7148 12.7517
RightFoot  -7.09875 -0.445964 10.7027
RightToes  2.96424e-010 1.2921e-014 -6.02303e-014
Spine  -6.96507 -2.17184 -3.50137
Spine1  9.8435 -1.73429 -4.00895
HEad  19.1073 -9.24981 -3.47896
LeftShoulder1  0.688239 0.982506 -23.6185
LeftArm  -2.49149 14.8277 -44.4283
LeftForeArm  38.1407 5.81426 -12.7877
LeftHand  -0.029007 5.25137 2.73349
RightShoulder  0.971049 0.11405 22.0307
RightArm  -49.904 2.34997 32.3155
RightForeArm  -41.3296 11.9197 -3.38014
RightHand  25.0597 -31.9273 -85.5502
LeftUpLeg  -21.6473 -7.14092 -5.93808
LeftLeg  20.3911 12.3074 5.63073
LeftFoot  0.285267 -0.177028 1.72202
LeftToes  -1.2485e-010 1.20979e-011 -1.0929e-011
129
root  -1.98298 38.683 -38.7674 0.0263949 -13.082 5.33977
RightUpLeg  -5.16086 7.97158 -10.8722
RightLeg  57.9177 7.86902 12.8776
RightFoot  1.27739 -1.46321 13.2585
RightToes  2.96424e-010 1.2921e-014 -6.02303e-014
Spine  -6.62718 -2.34838 -4.56184
Spine1  10.0526 -1.95751 -3.68218
HEad  18.376 -8.26988 -3.86907
LeftShoulder1  0.639305 1.13598 -23.4501
LeftArm  -2.26256 16.1691 -44.1446
LeftForeArm  38.5267 6.05684 -12.9343
LeftHand  -0.0308247 5.14166 2.54245
RightShoulder  0.987873 0.00357933 23.5777
RightArm  -52.6926 1.96268 30.7477
RightForeArm  -20.7052 -1.28242 -10.761
RightHand  19.7222 -35.3919 -64.9194
LeftUpLeg  -20.052 -6.88577 -7.32169
LeftLeg  20.9603 14.2049 6.55126
LeftFoot  -1.30986 -0.152451 1.82735
LeftToes  -1.2485e-010 1.20979e-011 -1.0929e-011
130
root  -1.95634 38.6757 -37.6308 -0.36391 -13.8298 6.01334
RightUpLeg  -9.97219 7.98485 -11.6779
RightLeg  64.7448 4.7281 10.2807
RightFoot  3.52599 -1.54197 11.964
RightToes  2.96424e-010 1.2921e-014 -6.02303e-014
Spine  -5.9706 -2.50439 -5.96222
Spine1  10.2902 -2.31686 -3.57038
HEad  16.9284 -6.68681 -4.51456
LeftShoulder1  0.582645 1.32482 -23.3963
LeftArm  -1.7736 16.9966 -43.7359
LeftForeArm  38.6815 5.85946 -13.1179
LeftHand  -0.0302352 5.08914 2.48551
RightShoulder  0.816239 -0.655935 24.5181
RightArm  -49.1678 -4.22128 27.9618
RightForeArm  -3.93165 -3.85417 -10.5863
RightHand  6.51882 -23.1464 -39.9314
LeftUpLeg  -18.4521 -6.16167 -8.75167
LeftLeg  22.1746 14.2146 6.98231
LeftFoot  -3.97993 -0.0790113 1.60142
LeftToes  -1.2485e-010 1.20979e-011 -1.0929e-011
131
root  -1.94105 38.747 -36.4724 -0.44449 -13.9705 6.13741
RightUpLeg  -13.9103 7.70273 -11.4641
RightLeg  68.557 2.54704 6.45315
RightFoot  0.803904 -0.948161 8.94668
RightToes  2.96424e-010 1.2921e-014 -6.02303e-014
Spine  -5.59803 -2.82215 -6.44786
Spine1  10.3368 -2.84907 -3.21532
HEad  15.8109 -5.01039 -5.67495
LeftShoulder1  0.593433 1.29803 -23.5489
LeftArm  -1.62342 17.4381 -43.2259
LeftForeArm  39.0496 5.44712 -13.0995
LeftHand  -0.0314994 5.0765 2.29186
RightShoulder  0.645939 -1.19127 24.1572
RightArm  -44.686 -13.0081 24.9923
RightForeArm  10.3356 -4.31946 -8.77251
RightHand  -0.527015 -2.51059 -20.9654
LeftUpLeg  -16.4736 -5.0955 -9.68
LeftLeg  22.1953 13.4428 6.77042
LeftFoot  -6.21407 -0.0307866 1.52338
LeftToes  -1.2485e-010 1.20979e-011 -1.0929e-011
